<svg version="1.0" xmlns="http://www.w3.org/2000/svg"
     width="1080.000000pt" height="1080.000000pt" viewBox="0 0 1080.000000 1080.000000"
     preserveAspectRatio="xMidYMid meet">

    <g transform="translate(0.000000,1080.000000) scale(0.100000,-0.100000)"
       fill="#000000" stroke="none">
        <path d="M1435 10020 c-294 -39 -562 -278 -636 -568 -18 -71 -19 -117 -19
-809 l0 -733 4125 0 4126 0 -3 738 c-4 819 0 776 -74 931 -71 152 -170 260
-315 348 -87 52 -169 79 -281 93 -99 12 -6829 12 -6923 0z m1106 -854 c78 -38
146 -108 183 -186 28 -59 31 -74 31 -160 0 -86 -3 -101 -32 -162 -39 -82 -100
-145 -179 -184 -84 -41 -205 -46 -301 -13 -90 32 -171 106 -215 198 -29 60
-32 75 -32 161 -1 88 2 101 32 160 49 99 117 164 209 201 39 15 67 19 148 16
86 -3 108 -7 156 -31z m1381 2 c74 -34 152 -112 186 -186 24 -51 27 -69 27
-162 0 -99 -2 -110 -32 -171 -39 -79 -102 -140 -181 -177 -81 -38 -212 -43
-295 -12 -154 58 -249 195 -249 360 0 43 7 94 16 120 38 105 129 199 234 241
73 29 218 23 294 -13z m1381 2 c74 -35 152 -112 188 -185 92 -188 8 -423 -184
-511 -56 -26 -72 -29 -167 -29 -93 0 -112 3 -162 27 -79 37 -142 98 -181 177
-30 62 -32 72 -32 171 1 98 3 109 32 165 51 97 125 164 216 197 75 27 223 21
290 -12z"/>
        <path d="M3877 7322 l-3097 -2 2 -2323 3 -2322 27 -77 c40 -113 103 -213 188
-298 116 -118 252 -186 416 -210 90 -13 5544 -14 5544 -1 0 16 -112 110 -205
173 -113 76 -345 189 -540 263 -175 66 -323 140 -403 200 -188 142 -248 372
-150 575 72 148 248 265 580 385 345 124 590 275 798 491 193 200 316 415 446
782 107 300 178 435 286 543 160 160 409 150 574 -23 101 -105 164 -234 304
-613 57 -154 138 -322 207 -430 55 -86 150 -205 163 -205 6 0 10 568 10 1545
l0 1545 -57 0 c-1097 4 -2599 5 -5096 2z m2675 -1579 c61 -28 143 -110 171
-171 16 -36 21 -67 22 -132 0 -77 -3 -92 -33 -152 -36 -75 -88 -123 -168 -160
l-49 -23 -1670 0 -1670 0 -60 28 c-107 50 -172 134 -194 249 -30 162 74 330
231 372 45 13 293 15 1713 13 l1660 -2 47 -22z m-970 -1154 c69 -14 124 -47
177 -104 65 -71 85 -124 85 -225 0 -108 -29 -176 -109 -248 -99 -91 -50 -86
-884 -90 -465 -2 -765 1 -818 7 -137 17 -226 79 -280 198 -22 47 -25 65 -21
141 2 67 9 98 28 137 45 91 139 166 233 185 66 13 1526 12 1589 -1z"/>
        <path d="M7901 4654 c0 -11 3 -14 6 -6 3 7 2 16 -1 19 -3 4 -6 -2 -5 -13z"/>
        <path d="M7289 3683 c-13 -16 -12 -17 4 -4 16 13 21 21 13 21 -2 0 -10 -8 -17
-17z"/>
        <path d="M6730 2880 c8 -5 20 -10 25 -10 6 0 3 5 -5 10 -8 5 -19 10 -25 10 -5
0 -3 -5 5 -10z"/>
        <path d="M9275 2840 c-3 -6 1 -7 9 -4 18 7 21 14 7 14 -6 0 -13 -4 -16 -10z"/>
        <path d="M9030 2700 c-9 -6 -10 -10 -3 -10 6 0 15 5 18 10 8 12 4 12 -15 0z"/>
        <path d="M7090 2687 c0 -3 12 -12 26 -22 15 -9 23 -12 20 -6 -7 11 -46 35 -46
28z"/>
    </g>
</svg>
